ModelForces
version=1
nRows=4
nColumns=94
inDegrees=yes

This file contains the forces exerted on a model during a simulation.

A force is a generalized force, meaning that it can be either a force (N) or a torque (Nm).

Units are S.I. units (second, meters, Newtons, ...)
Angles are in degrees.

endheader 
time	addbrev_l	addlong_l	addmagDist_l	addmagIsch_l	addmagMid_l	addmagProx_l	bflh_l	bfsh_l	edl_l	ehl_l	fdl_l	fhl_l	gaslat_l	gasmed_l	glmax1_l	glmax2_l	glmax3_l	glmed1_l	glmed2_l	glmed3_l	glmin1_l	glmin2_l	glmin3_l	grac_l	iliacus_l	perbrev_l	perlong_l	piri_l	psoas_l	recfem_l	sart_l	semimem_l	semiten_l	soleus_l	tfl_l	tibant_l	tibpost_l	vasint_l	vaslat_l	vasmed_l	addbrev_r	addlong_r	addmagDist_r	addmagIsch_r	addmagMid_r	addmagProx_r	bflh_r	bfsh_r	edl_r	ehl_r	fdl_r	fhl_r	gaslat_r	gasmed_r	glmax1_r	glmax2_r	glmax3_r	glmed1_r	glmed2_r	glmed3_r	glmin1_r	glmin2_r	glmin3_r	grac_r	iliacus_r	perbrev_r	perlong_r	piri_r	psoas_r	recfem_r	sart_r	semimem_r	semiten_r	soleus_r	tfl_r	tibant_r	tibpost_r	vasint_r	vaslat_r	vasmed_r	lumbar_extension	lumbar_bending	lumbar_rotation	arm_flex_l	arm_add_l	arm_rot_l	arm_flex_r	arm_add_r	arm_rot_r	elbow_flex_l	elbow_flex_r	pro_sup_l	pro_sup_r	
          5.70000000	          7.69416617	         10.44985558	          5.67611528	          3.61223936	          6.79184332	         18.13640591	          3.21403170	         19.58919942	         52.96701272	          0.32052787	          6.09211621	         11.27188849	         17.90738982	         37.94696986	          8.69568239	         17.31268308	         71.78209265	          7.38547409	          6.83809427	          7.37646368	          1.54746707	          2.25467386	          2.10181777	          1.92881882	          8.75185859	         12.08370739	         37.92164753	          6.75077075	        311.33451206	          0.12774655	        101.54627327	          5.28863559	          2.19623023	         53.63284063	          0.00088521	         99.36069143	         17.25611493	        172.01869860	         59.70117647	         31.02779300	          5.51591300	         16.71777047	          6.18001389	          7.91470968	          5.31059463	         13.56423187	         88.82327427	         35.22195677	         52.25179429	         11.30733702	          4.88217057	          9.67510874	         22.95949547	         87.67451866	         30.24683658	         46.01383684	         18.52239692	         23.07798330	         38.49232840	         93.55828331	          5.76220185	         13.23543275	         19.27786917	          3.46040015	         27.89050593	         12.00687822	         53.17315496	          1.26639119	         27.21679490	         30.81695688	         13.12655874	        150.34767953	         18.40928622	         61.05923497	         10.61330596	        132.29116281	         18.09540357	         10.21073510	         30.59967990	         15.18580840	         16.30209137	         -4.71934803	         10.03427721	         -8.07400254	       -104.17612220	         36.69423234	         54.26511972	        -95.14430508	        -39.53378423	         29.56007490	         30.92878938	          0.46237996	         -4.26291922	
          5.71000000	          7.92431333	         10.89635162	          5.66294434	          3.56779426	          6.86811885	         15.45105343	          2.68519770	         11.09225519	         59.98736679	         27.89740065	          5.04716515	         10.07829660	          9.24827484	         13.65040556	          8.51421844	         14.14074500	         58.99163771	          7.40731091	          6.74485651	          7.20759103	          1.61037096	          2.23526417	          1.92901082	          1.89848400	          9.01145820	          7.08043163	          0.22986616	          6.13672436	        623.84270748	          0.19452996	        112.58314164	          5.08731155	          2.12340746	         54.58249453	          0.00096861	         23.65526687	         16.99191918	        178.68917568	         48.28182903	         25.22109723	         12.25612804	         30.40457450	          5.97889788	          6.95852786	          5.16180491	         35.43983843	         73.85539775	         21.54860717	         63.76931714	          0.05330359	          5.93197221	         10.34230999	         75.93908750	         72.51682866	         25.53836804	         38.84648149	         15.70878004	         19.28079543	         32.37373689	         79.27573526	          5.01545706	         11.10551979	         16.67864215	          3.34865478	         12.01967804	         21.68412058	         62.59970239	          1.44407480	        317.30781417	         78.75758800	         34.13642298	        123.86690883	         15.01213605	         61.54813481	         10.24487178	        186.28961262	         20.09230615	         10.51622182	         31.44498656	         15.59200794	        -34.75425929	         -0.76402423	         42.40650982	         31.66430678	       -115.01866364	         36.93725494	         -1.04566305	       -105.98249532	          4.54635249	         42.61230244	         14.06363691	          0.22777625	         -3.44731758	
          5.72000000	          8.09434059	         11.38106017	          5.60035851	          3.50663151	          6.87308274	         13.28964967	          2.14776117	         73.95929852	         65.60984282	         13.16740240	          5.18269555	         10.27763486	         50.08379810	        106.00040758	          8.25505872	         11.51478292	         48.89456542	          7.17006922	          6.43289639	          6.84275816	          1.62299189	          2.11929648	          1.54124488	          1.84840637	         11.26685012	         21.38566074	         90.80375603	          5.03523848	        967.04732706	          0.23829858	        203.68555430	          4.63627963	          2.03242792	         57.78167624	          0.00010960	        196.48957738	         14.90603588	         70.39455314	         41.09417167	         21.40079524	         25.70145016	         37.41793953	          5.79245898	          6.80193028	          6.07559595	         35.17609822	         60.78019642	         79.33248566	         68.97609402	         37.89899209	          3.00861696	          7.80070803	        127.17080248	         62.50185368	         21.55070802	         32.77273483	         13.19321771	         16.28056372	         27.39068633	         67.34545320	          5.04101114	          9.44494631	         14.56484807	          6.33365489	        192.83725948	         21.84197711	         63.03589089	          1.61505388	        431.56229754	          0.18093697	         50.05011768	        101.12645148	         12.15881645	         57.87542869	         14.50449885	        214.66645318	         15.40582545	         10.40921133	         31.75672401	         15.58609019	       -100.67187854	         28.48250873	         74.84778631	         61.23909374	        -58.09895974	         -2.28171469	        -39.16715106	       -111.13111679	         45.14549861	         32.81647810	         51.07116861	         -1.22238594	         -1.55002221	
          5.73000000	          7.84863299	         11.25478276	          5.17881214	          3.09235764	          6.41948706	         10.75031491	          1.29028603	         60.79829422	         70.54669756	         17.50776154	          2.87464654	          8.17814651	         39.68582192	         83.76607328	          8.21695573	         11.22399974	         38.16667029	          8.17070132	          7.02574646	          7.26571000	          1.89169949	          2.48573653	          2.02763004	          1.69472919	         10.26934236	         28.16457664	         89.35873372	          5.40081232	        863.28172995	          1.12377276	        167.79052221	          3.01678593	          1.72506561	         53.35936840	          0.32808336	        191.79118726	         12.03414274	        239.25361683	         38.10227838	         19.96721251	         22.16906654	         32.18836347	          6.05155549	          6.96837484	          5.27326037	         29.77985619	         48.58913705	         64.78496534	         57.78306677	          7.09268677	          8.44143766	         14.63655180	         70.20009263	         52.63857555	         17.81744308	         27.05419545	         10.89710978	         14.16612378	         22.54594611	         55.48036740	          5.07399447	          7.87147569	         12.85473363	          5.26781516	        164.83084270	         15.26960133	         51.14501026	          1.76225805	        329.87201553	        210.58655456	         41.96182524	         80.27282108	          9.73307745	         82.91806434	          0.69297547	        174.41953326	         28.66734038	         13.43474791	         40.14729945	         19.50686220	        -16.68999475	         18.52299380	         17.97535839	          9.10024606	         -6.26366166	        -10.37455489	         12.60612288	       -118.08826504	         83.33842529	         22.66399511	         22.60762479	         -1.20497809	         12.35424472	
